<?xml version="1.0" encoding="UTF-8" standalone="no"?>
<!-- Created with Inkscape (http://www.inkscape.org/) -->

<svg
   xmlns:dc="http://purl.org/dc/elements/1.1/"
   xmlns:cc="http://creativecommons.org/ns#"
   xmlns:rdf="http://www.w3.org/1999/02/22-rdf-syntax-ns#"
   xmlns:svg="http://www.w3.org/2000/svg"
   xmlns="http://www.w3.org/2000/svg"
   xmlns:sodipodi="http://sodipodi.sourceforge.net/DTD/sodipodi-0.dtd"
   xmlns:inkscape="http://www.inkscape.org/namespaces/inkscape"
   width="89.657112mm"
   height="103.68833mm"
   viewBox="0 0 317.68268 367.3996"
   id="svg2"
   version="1.1"
   inkscape:version="0.91 r13725"
   sodipodi:docname="legend.svg">
  <defs
     id="defs4" />
  <sodipodi:namedview
     id="base"
     pagecolor="#ffffff"
     bordercolor="#666666"
     borderopacity="1.0"
     inkscape:pageopacity="0.0"
     inkscape:pageshadow="2"
     inkscape:zoom="2.011859"
     inkscape:cx="62.474824"
     inkscape:cy="181.48602"
     inkscape:document-units="px"
     inkscape:current-layer="layer1"
     showgrid="false"
     showguides="true"
     inkscape:guide-bbox="true"
     inkscape:window-width="1920"
     inkscape:window-height="1017"
     inkscape:window-x="1912"
     inkscape:window-y="-8"
     inkscape:window-maximized="1"
     fit-margin-top="0"
     fit-margin-left="0"
     fit-margin-right="0"
     fit-margin-bottom="0">
    <inkscape:grid
       type="xygrid"
       id="grid4136"
       originx="-39.605004"
       originy="-637.89336" />
    <sodipodi:guide
       position="137.35353,346.33311"
       orientation="0,1"
       id="guide4138" />
    <sodipodi:guide
       position="29.493087,278.07767"
       orientation="1,0"
       id="guide4140" />
  </sodipodi:namedview>
  <metadata
     id="metadata7">
    <rdf:RDF>
      <cc:Work
         rdf:about="">
        <dc:format>image/svg+xml</dc:format>
        <dc:type
           rdf:resource="http://purl.org/dc/dcmitype/StillImage" />
        <dc:title />
      </cc:Work>
    </rdf:RDF>
  </metadata>
  <g
     inkscape:label="Layer 1"
     inkscape:groupmode="layer"
     id="layer1"
     transform="translate(-39.605003,-47.069248)">
    <rect
       style="opacity:1;fill:#d1d392;fill-opacity:0.90980392;stroke:none;stroke-width:2.5;stroke-miterlimit:10;stroke-dasharray:none;stroke-dashoffset:0.31812501;stroke-opacity:1"
       id="rect4142"
       width="67.594604"
       height="38.491676"
       x="69.947777"
       y="67.98317"
       transform="matrix(0.99998955,0.00457065,-0.00486174,0.99998818,0,0)" />
    <rect
       style="opacity:1;fill:#5f487c;fill-opacity:0.90980392;stroke:none;stroke-width:2.5;stroke-miterlimit:10;stroke-dasharray:none;stroke-dashoffset:0.31812501;stroke-opacity:1"
       id="rect4142-4"
       width="67.594604"
       height="38.491676"
       x="70.180847"
       y="115.92291"
       transform="matrix(0.99998955,0.00457065,-0.00486174,0.99998818,0,0)" />
    <rect
       style="opacity:1;fill:#f7ba77;fill-opacity:0.90980392;stroke:none;stroke-width:2.5;stroke-miterlimit:10;stroke-dasharray:none;stroke-dashoffset:0.31812501;stroke-opacity:1"
       id="rect4142-1"
       width="67.594604"
       height="38.491676"
       x="70.413925"
       y="163.86264"
       inkscape:transform-center-x="0.3594332"
       inkscape:transform-center-y="-36.413047"
       transform="matrix(0.99998955,0.00457065,-0.00486174,0.99998818,0,0)" />
    <rect
       style="opacity:1;fill:#c5b5e5;fill-opacity:0.90980392;stroke:none;stroke-width:2.5;stroke-miterlimit:10;stroke-dasharray:none;stroke-dashoffset:0.31812501;stroke-opacity:1"
       id="rect4142-8"
       width="67.594604"
       height="38.491676"
       x="70.646996"
       y="211.80241"
       transform="matrix(0.99998955,0.00457065,-0.00486174,0.99998818,0,0)" />
    <rect
       style="opacity:1;fill:#224f20;fill-opacity:0.90980392;stroke:none;stroke-width:2.5;stroke-miterlimit:10;stroke-dasharray:none;stroke-dashoffset:0.31812501;stroke-opacity:1"
       id="rect4142-7"
       width="67.594604"
       height="38.491676"
       x="70.880074"
       y="259.74213"
       transform="matrix(0.99998955,0.00457065,-0.00486174,0.99998818,0,0)" />
    <rect
       style="opacity:1;fill:#993f88;fill-opacity:0.90980392;stroke:none;stroke-width:2.5;stroke-miterlimit:10;stroke-dasharray:none;stroke-dashoffset:0.31812501;stroke-opacity:1"
       id="rect4142-15"
       width="67.594604"
       height="38.491676"
       x="71.113144"
       y="307.68182"
       transform="matrix(0.99998955,0.00457065,-0.00486174,0.99998818,0,0)" />
    <rect
       style="opacity:1;fill:#afd5e8;fill-opacity:0.90980392;stroke:none;stroke-width:2.5;stroke-miterlimit:10;stroke-dasharray:none;stroke-dashoffset:0.31812501;stroke-opacity:1"
       id="rect4142-5"
       width="67.594604"
       height="38.491676"
       x="71.346222"
       y="355.62155"
       inkscape:transform-center-x="-26.6409"
       inkscape:transform-center-y="37.573491"
       transform="matrix(0.99998955,0.00457065,-0.00486174,0.99998818,0,0)" />
    <g
       transform="translate(-19.073184,4)"
       style="font-style:normal;font-variant:normal;font-weight:500;font-stretch:normal;font-size:17.5px;line-height:125%;font-family:'Helvetica BQ';-inkscape-font-specification:'Helvetica BQ Medium';text-align:center;letter-spacing:0px;word-spacing:0px;text-anchor:middle;fill:#000000;fill-opacity:1;stroke:none;stroke-width:1px;stroke-linecap:butt;stroke-linejoin:miter;stroke-opacity:1"
       id="flowRoot4189">
      <path
         d="m 170.64988,85.140394 4.5675,0 c 1.5225,0.0175 3.0975,-0.0175 4.095,-1.4175 0.2275,-0.3325 0.6475,-1.0675 0.6475,-2.135 0,-1.6625 -1.0325,-2.485 -1.5575,-2.7475 -0.3675,-0.1925 -0.7175,-0.245 -0.875,-0.28 0.42,-0.1575 0.595,-0.2625 0.7875,-0.4025 0.735,-0.56 1.085,-1.435 1.085,-2.345 0,-0.8925 -0.3325,-1.47 -0.5425,-1.7675 -0.56,-0.7875 -1.295,-1.12 -2.2225,-1.225 -0.315,-0.035 -0.63,-0.035 -0.945,-0.035 l -5.04,0 0,12.355 z m 1.19,-1.0675 0,-4.9 3.4825,0 c 1.0325,0 2.1875,-0.0175 2.9225,0.875 0.5075,0.6125 0.5075,1.3475 0.5075,1.5925 0,0.9625 -0.3325,1.82 -1.2775,2.205 -0.735,0.2975 -2.03,0.2275 -2.1175,0.2275 l -3.5175,0 z m 0,-5.88 0,-4.41 3.6575,0 c 0.7525,0 1.015,0.0175 1.4,0.1575 0.4725,0.1575 1.33,0.6475 1.33,1.9775 0,0.1925 -0.0175,0.9275 -0.4375,1.47 -0.6825,0.84 -1.75,0.8225 -2.695,0.805 l -3.255,0 z"
         style=""
         id="path4463" />
      <path
         d="m 183.15336,85.140394 0,-12.355 -1.1375,0 0,12.355 1.1375,0 z"
         style=""
         id="path4465" />
      <path
         d="m 187.89559,80.082894 c -0.8225,0.1575 -1.6975,0.28 -2.3275,0.91 -0.49,0.49 -0.6825,1.19 -0.6825,1.855 0,1.015 0.5075,2.52 2.8875,2.52 1.6625,0 2.555,-0.6475 3.01,-1.225 0.105,-0.1225 0.175,-0.245 0.3325,-0.525 -0.0175,0.175 -0.0525,0.35 -0.0525,0.525 0,0.8225 0.5425,1.1375 1.295,1.155 0.4025,0 0.63,-0.105 0.7875,-0.1575 l 0.0175,-0.8575 c -0.245,0.105 -0.35,0.1225 -0.49,0.1225 -0.2625,0 -0.4025,-0.1225 -0.455,-0.2275 -0.1225,-0.2275 -0.0875,-0.63 -0.07,-0.8575 l 0,-4.41 c 0,-0.7 -0.0175,-1.015 -0.1575,-1.365 -0.2975,-0.8225 -1.2075,-1.5925 -3.115,-1.5925 -2.1,0 -3.01,0.875 -3.3775,1.785 -0.0875,0.245 -0.21,0.6125 -0.21,1.1725 l 1.1725,0 c 0,-0.245 0.0175,-0.4025 0.07,-0.6475 0.105,-0.3675 0.2975,-0.6125 0.4025,-0.7 0.49,-0.5425 1.155,-0.63 1.855,-0.63 1.26,0 1.925,0.4025 2.1525,1.015 0.0875,0.245 0.07,0.35 0.105,0.8225 l 0,0.175 c 0,0.315 -0.0175,0.49 -0.175,0.595 -0.105,0.07 -0.5425,0.1575 -0.9625,0.2275 l -2.0125,0.315 z m 3.185,0.4025 0,0.77 c -0.0175,0.525 -0.0175,0.8925 -0.21,1.3825 -0.4375,1.2075 -1.68,1.82 -2.905,1.82 -0.21,0 -0.875,0 -1.4,-0.4725 -0.4725,-0.42 -0.5075,-0.98 -0.5075,-1.2075 0,-0.4375 0.1225,-0.7 0.21,-0.8575 0.4025,-0.6825 1.155,-0.805 1.8725,-0.945 l 2.94,-0.49 z"
         style=""
         id="path4467" />
      <path
         d="m 201.85156,78.962894 c -0.0525,-0.49 -0.1225,-0.7 -0.2275,-0.9275 -0.525,-1.3825 -1.785,-1.855 -2.2575,-1.9775 -0.455,-0.105 -0.91,-0.105 -1.0675,-0.105 -0.1575,0 -0.7175,0 -1.225,0.14 -0.84,0.2625 -1.3825,0.77 -1.5925,0.9975 -1.26,1.3125 -1.3125,3.1325 -1.3125,3.675 0,0.4725 0.0175,2.17 1.12,3.395 0.735,0.8225 1.7325,1.2075 2.8525,1.2075 1.5225,0 2.835,-0.7875 3.4475,-2.2225 0.1925,-0.4725 0.28,-0.9275 0.2975,-1.12 l -1.1025,-0.0175 c 0,0.1225 -0.0525,0.5075 -0.21,0.8575 -0.4025,0.98 -1.3125,1.5225 -2.345,1.5225 -1.3125,0 -2.03,-0.84 -2.275,-1.2075 -0.4725,-0.7175 -0.63,-1.6975 -0.63,-2.52 0,-0.42 0,-2.59 1.715,-3.4475 0.5075,-0.2625 1.015,-0.28 1.2075,-0.28 0.315,-0.0175 1.505,0.0525 2.135,0.9975 0.14,0.21 0.2625,0.49 0.3675,1.0325 l 1.1025,0 z"
         style=""
         id="path4469" />
      <path
         d="m 210.50559,85.140394 -3.78,-5.6175 3.6575,-3.3425 -1.4525,0 -4.0775,3.71 c -0.175,0.1575 -0.3325,0.3325 -0.5075,0.5075 l 0,-7.6125 -1.155,0 0,12.355 1.1375,0 0,-3.5175 1.5575,-1.4525 3.2725,4.97 1.3475,0 z"
         style=""
         id="path4471" />
      <path
         d="m 211.37211,85.140394 4.7775,-12.5825 -1.0675,0 -4.795,12.5825 1.085,0 z"
         style=""
         id="path4473" />
      <path
         d="m 227.06934,85.140394 -4.8125,-12.355 -1.26,0 -4.865,12.355 1.26,0 1.4875,-3.9025 5.46,0 1.47,3.9025 1.26,0 z m -3.0975,-4.9 -4.725,0 2.345,-6.2125 2.38,6.2125 z"
         style=""
         id="path4475" />
      <path
         d="m 229.50184,85.140394 0,-8.1025 1.505,0 0,-0.8575 -1.5225,0 0,-1.1375 c 0.0175,-0.595 0.0175,-0.9275 0.1925,-1.1725 0.2275,-0.315 0.63,-0.35 1.33,-0.2625 l 0,-0.945 c -0.1925,-0.035 -0.4025,-0.0525 -0.6125,-0.0525 -2.0825,0 -2.0125,1.4175 -2.03,2.2225 l 0,1.3475 -1.2775,0 0,0.8575 1.2775,0 0,8.1025 1.1375,0 z"
         style=""
         id="path4477" />
      <path
         d="m 233.44836,85.140394 0,-4.0075 c 0,-1.225 0.0175,-2.5725 1.0675,-3.43 0.56,-0.4375 1.12,-0.5425 1.8025,-0.5425 l 0,-1.085 c -0.175,-0.0175 -0.315,-0.035 -0.385,-0.035 -1.155,0 -1.7675,0.5775 -2.065,0.945 -0.3675,0.455 -0.455,0.8225 -0.5075,1.05 l 0.035,-1.855 -1.0325,0 0,8.96 1.085,0 z"
         style=""
         id="path4479" />
      <path
         d="m 238.93461,85.140394 0,-8.96 -1.1375,0 0,8.96 1.1375,0 z m -0.0175,-10.9025 0,-1.505 -1.1025,0 0,1.505 1.1025,0 z"
         style=""
         id="path4481" />
      <path
         d="m 248.50684,78.962894 c -0.0525,-0.49 -0.1225,-0.7 -0.2275,-0.9275 -0.525,-1.3825 -1.785,-1.855 -2.2575,-1.9775 -0.455,-0.105 -0.91,-0.105 -1.0675,-0.105 -0.1575,0 -0.7175,0 -1.225,0.14 -0.84,0.2625 -1.3825,0.77 -1.5925,0.9975 -1.26,1.3125 -1.3125,3.1325 -1.3125,3.675 0,0.4725 0.0175,2.17 1.12,3.395 0.735,0.8225 1.7325,1.2075 2.8525,1.2075 1.5225,0 2.835,-0.7875 3.4475,-2.2225 0.1925,-0.4725 0.28,-0.9275 0.2975,-1.12 l -1.1025,-0.0175 c 0,0.1225 -0.0525,0.5075 -0.21,0.8575 -0.4025,0.98 -1.3125,1.5225 -2.345,1.5225 -1.3125,0 -2.03,-0.84 -2.275,-1.2075 -0.4725,-0.7175 -0.63,-1.6975 -0.63,-2.52 0,-0.42 0,-2.59 1.715,-3.4475 0.5075,-0.2625 1.015,-0.28 1.2075,-0.28 0.315,-0.0175 1.505,0.0525 2.135,0.9975 0.14,0.21 0.2625,0.49 0.3675,1.0325 l 1.1025,0 z"
         style=""
         id="path4483" />
      <path
         d="m 252.42684,80.082894 c -0.8225,0.1575 -1.6975,0.28 -2.3275,0.91 -0.49,0.49 -0.6825,1.19 -0.6825,1.855 0,1.015 0.5075,2.52 2.8875,2.52 1.6625,0 2.555,-0.6475 3.01,-1.225 0.105,-0.1225 0.175,-0.245 0.3325,-0.525 -0.0175,0.175 -0.0525,0.35 -0.0525,0.525 0,0.8225 0.5425,1.1375 1.295,1.155 0.4025,0 0.63,-0.105 0.7875,-0.1575 l 0.0175,-0.8575 c -0.245,0.105 -0.35,0.1225 -0.49,0.1225 -0.2625,0 -0.4025,-0.1225 -0.455,-0.2275 -0.1225,-0.2275 -0.0875,-0.63 -0.07,-0.8575 l 0,-4.41 c 0,-0.7 -0.0175,-1.015 -0.1575,-1.365 -0.2975,-0.8225 -1.2075,-1.5925 -3.115,-1.5925 -2.1,0 -3.01,0.875 -3.3775,1.785 -0.0875,0.245 -0.21,0.6125 -0.21,1.1725 l 1.1725,0 c 0,-0.245 0.0175,-0.4025 0.07,-0.6475 0.105,-0.3675 0.2975,-0.6125 0.4025,-0.7 0.49,-0.5425 1.155,-0.63 1.855,-0.63 1.26,0 1.925,0.4025 2.1525,1.015 0.0875,0.245 0.07,0.35 0.105,0.8225 l 0,0.175 c 0,0.315 -0.0175,0.49 -0.175,0.595 -0.105,0.07 -0.5425,0.1575 -0.9625,0.2275 l -2.0125,0.315 z m 3.185,0.4025 0,0.77 c -0.0175,0.525 -0.0175,0.8925 -0.21,1.3825 -0.4375,1.2075 -1.68,1.82 -2.905,1.82 -0.21,0 -0.875,0 -1.4,-0.4725 -0.4725,-0.42 -0.5075,-0.98 -0.5075,-1.2075 0,-0.4375 0.1225,-0.7 0.21,-0.8575 0.4025,-0.6825 1.155,-0.805 1.8725,-0.945 l 2.94,-0.49 z"
         style=""
         id="path4485" />
      <path
         d="m 266.27781,85.140394 0,-5.46 c 0,-1.225 0.035,-2.52 -1.1725,-3.2725 -0.56,-0.3325 -1.2075,-0.4375 -1.8375,-0.4375 -1.4525,0 -2.1875,0.63 -2.555,1.1375 -0.1225,0.1925 -0.1925,0.3325 -0.28,0.5425 l 0,-1.47 -1.0675,0 0,8.96 1.1375,0 0,-4.8825 c -0.0175,-0.8225 -0.0525,-1.47 0.4375,-2.1875 0.2625,-0.4025 0.945,-1.12 2.205,-1.1375 0.2625,0 1.365,0.0175 1.785,1.015 0.175,0.4025 0.21,0.7525 0.21,1.61 l 0,5.5825 1.1375,0 z"
         style=""
         id="path4487" />
      <path
         d="m 272.75227,81.237894 0,-1.1025 -4.5325,0 0,1.1025 4.5325,0 z"
         style=""
         id="path4489" />
      <path
         d="m 284.35449,85.140394 -4.8125,-12.355 -1.26,0 -4.865,12.355 1.26,0 1.4875,-3.9025 5.46,0 1.47,3.9025 1.26,0 z m -3.0975,-4.9 -4.725,0 2.345,-6.2125 2.38,6.2125 z"
         style=""
         id="path4491" />
      <path
         d="m 297.67199,85.140394 0,-6.3175 c -0.0175,-0.6825 -0.0525,-0.945 -0.175,-1.295 -0.4025,-1.085 -1.4525,-1.3825 -1.8025,-1.47 -0.1575,-0.035 -0.4725,-0.0875 -0.91,-0.0875 -1.435,0 -2.1525,0.6125 -2.52,1.12 -0.1225,0.175 -0.2275,0.35 -0.2975,0.5425 -0.0175,-0.07 -0.0875,-0.2975 -0.21,-0.49 -0.315,-0.5425 -0.98,-1.1725 -2.3975,-1.1725 -0.315,0 -1.1725,0 -1.9075,0.56 -0.5075,0.385 -0.6475,0.735 -0.7525,0.98 l 0,-1.33 -1.085,0 0,8.96 1.12,0 0,-4.375 c 0,-1.1375 -0.07,-2.45 0.945,-3.2725 0.2625,-0.2275 0.7525,-0.525 1.5925,-0.525 1.8025,0 1.8025,1.4875 1.82,2.065 l 0,6.1075 1.12,0 0,-4.4975 c 0,-1.085 -0.035,-2.5725 1.015,-3.2725 0.56,-0.3675 1.19,-0.385 1.4,-0.385 0.665,0 1.3825,0.2275 1.6975,0.875 0.21,0.42 0.21,0.875 0.21,1.8025 l 0,5.4775 1.1375,0 z"
         style=""
         id="path4493" />
      <path
         d="m 307.38422,80.835394 c 0,-1.19 -0.1225,-2.45 -0.84,-3.465 -0.945,-1.3475 -2.3975,-1.4175 -2.94,-1.4175 -1.2425,0 -2.0125,0.49 -2.38,0.77 -1.6625,1.295 -1.645,3.4475 -1.645,4.025 0,1.6275 0.455,2.59 0.8925,3.15 0.28,0.385 0.6475,0.665 0.77,0.7525 0.7,0.5075 1.4175,0.7175 2.275,0.7175 1.995,0 3.01,-1.2425 3.395,-1.8725 0.2975,-0.49 0.4375,-0.945 0.5075,-1.155 l -1.155,0 c -0.175,0.525 -0.28,0.7175 -0.455,0.9625 -0.7,0.9625 -1.8375,1.0675 -2.205,1.0675 -0.2975,0 -0.9625,-0.035 -1.61,-0.49 -0.875,-0.6125 -1.19,-1.505 -1.2775,-2.5025 -0.0175,-0.175 -0.035,-0.3675 -0.035,-0.5425 l 6.7025,0 z m -6.685,-0.8925 c 0.1575,-1.085 0.5425,-1.7325 0.8575,-2.0825 0.2625,-0.2975 0.91,-0.9275 2.0125,-0.9275 1.1375,0 2.03,0.6475 2.45,1.6975 0.21,0.56 0.2275,1.1025 0.245,1.3125 l -5.565,0 z"
         style=""
         id="path4495" />
      <path
         d="m 310.4552,85.140394 0,-4.0075 c 0,-1.225 0.0175,-2.5725 1.0675,-3.43 0.56,-0.4375 1.12,-0.5425 1.8025,-0.5425 l 0,-1.085 c -0.175,-0.0175 -0.315,-0.035 -0.385,-0.035 -1.155,0 -1.7675,0.5775 -2.065,0.945 -0.3675,0.455 -0.455,0.8225 -0.5075,1.05 l 0.035,-1.855 -1.0325,0 0,8.96 1.085,0 z"
         style=""
         id="path4497" />
      <path
         d="m 315.94145,85.140394 0,-8.96 -1.1375,0 0,8.96 1.1375,0 z m -0.0175,-10.9025 0,-1.505 -1.1025,0 0,1.505 1.1025,0 z"
         style=""
         id="path4499" />
      <path
         d="m 325.51367,78.962894 c -0.0525,-0.49 -0.1225,-0.7 -0.2275,-0.9275 -0.525,-1.3825 -1.785,-1.855 -2.2575,-1.9775 -0.455,-0.105 -0.91,-0.105 -1.0675,-0.105 -0.1575,0 -0.7175,0 -1.225,0.14 -0.84,0.2625 -1.3825,0.77 -1.5925,0.9975 -1.26,1.3125 -1.3125,3.1325 -1.3125,3.675 0,0.4725 0.0175,2.17 1.12,3.395 0.735,0.8225 1.7325,1.2075 2.8525,1.2075 1.5225,0 2.835,-0.7875 3.4475,-2.2225 0.1925,-0.4725 0.28,-0.9275 0.2975,-1.12 l -1.1025,-0.0175 c 0,0.1225 -0.0525,0.5075 -0.21,0.8575 -0.4025,0.98 -1.3125,1.5225 -2.345,1.5225 -1.3125,0 -2.03,-0.84 -2.275,-1.2075 -0.4725,-0.7175 -0.63,-1.6975 -0.63,-2.52 0,-0.42 0,-2.59 1.715,-3.4475 0.5075,-0.2625 1.015,-0.28 1.2075,-0.28 0.315,-0.0175 1.505,0.0525 2.135,0.9975 0.14,0.21 0.2625,0.49 0.3675,1.0325 l 1.1025,0 z"
         style=""
         id="path4501" />
      <path
         d="m 329.43367,80.082894 c -0.8225,0.1575 -1.6975,0.28 -2.3275,0.91 -0.49,0.49 -0.6825,1.19 -0.6825,1.855 0,1.015 0.5075,2.52 2.8875,2.52 1.6625,0 2.555,-0.6475 3.01,-1.225 0.105,-0.1225 0.175,-0.245 0.3325,-0.525 -0.0175,0.175 -0.0525,0.35 -0.0525,0.525 0,0.8225 0.5425,1.1375 1.295,1.155 0.4025,0 0.63,-0.105 0.7875,-0.1575 l 0.0175,-0.8575 c -0.245,0.105 -0.35,0.1225 -0.49,0.1225 -0.2625,0 -0.4025,-0.1225 -0.455,-0.2275 -0.1225,-0.2275 -0.0875,-0.63 -0.07,-0.8575 l 0,-4.41 c 0,-0.7 -0.0175,-1.015 -0.1575,-1.365 -0.2975,-0.8225 -1.2075,-1.5925 -3.115,-1.5925 -2.1,0 -3.01,0.875 -3.3775,1.785 -0.0875,0.245 -0.21,0.6125 -0.21,1.1725 l 1.1725,0 c 0,-0.245 0.0175,-0.4025 0.07,-0.6475 0.105,-0.3675 0.2975,-0.6125 0.4025,-0.7 0.49,-0.5425 1.155,-0.63 1.855,-0.63 1.26,0 1.925,0.4025 2.1525,1.015 0.0875,0.245 0.07,0.35 0.105,0.8225 l 0,0.175 c 0,0.315 -0.0175,0.49 -0.175,0.595 -0.105,0.07 -0.5425,0.1575 -0.9625,0.2275 l -2.0125,0.315 z m 3.185,0.4025 0,0.77 c -0.0175,0.525 -0.0175,0.8925 -0.21,1.3825 -0.4375,1.2075 -1.68,1.82 -2.905,1.82 -0.21,0 -0.875,0 -1.4,-0.4725 -0.4725,-0.42 -0.5075,-0.98 -0.5075,-1.2075 0,-0.4375 0.1225,-0.7 0.21,-0.8575 0.4025,-0.6825 1.155,-0.805 1.8725,-0.945 l 2.94,-0.49 z"
         style=""
         id="path4503" />
      <path
         d="m 343.28465,85.140394 0,-5.46 c 0,-1.225 0.035,-2.52 -1.1725,-3.2725 -0.56,-0.3325 -1.2075,-0.4375 -1.8375,-0.4375 -1.4525,0 -2.1875,0.63 -2.555,1.1375 -0.1225,0.1925 -0.1925,0.3325 -0.28,0.5425 l 0,-1.47 -1.0675,0 0,8.96 1.1375,0 0,-4.8825 c -0.0175,-0.8225 -0.0525,-1.47 0.4375,-2.1875 0.2625,-0.4025 0.945,-1.12 2.205,-1.1375 0.2625,0 1.365,0.0175 1.785,1.015 0.175,0.4025 0.21,0.7525 0.21,1.61 l 0,5.5825 1.1375,0 z"
         style=""
         id="path4505" />
    </g>
    <g
       transform="translate(-19.982881,-2.4006347)"
       style="font-style:normal;font-variant:normal;font-weight:500;font-stretch:normal;font-size:17.5px;line-height:125%;font-family:'Helvetica BQ';-inkscape-font-specification:'Helvetica BQ Medium';text-align:center;letter-spacing:0px;word-spacing:0px;text-anchor:middle;fill:#000000;fill-opacity:1;stroke:none;stroke-width:1px;stroke-linecap:butt;stroke-linejoin:miter;stroke-opacity:1"
       id="flowRoot4197">
      <path
         d="m 182.94115,140.75758 0,-12.355 -1.225,0 0,5.285 -6.7725,0 0,-5.285 -1.2075,0 0,12.355 1.2075,0 0,-6.0375 6.7725,0 0,6.0375 1.225,0 z"
         style=""
         id="path4432" />
      <path
         d="m 186.58061,140.75758 0,-8.96 -1.1375,0 0,8.96 1.1375,0 z m -0.0175,-10.9025 0,-1.505 -1.1025,0 0,1.505 1.1025,0 z"
         style=""
         id="path4434" />
      <path
         d="m 192.51283,136.85508 c 0.735,0.1925 1.715,0.4375 1.715,1.4175 0,0.4025 -0.1925,0.735 -0.2625,0.84 -0.42,0.6825 -1.19,0.8575 -1.925,0.8575 -0.91,0 -2.0125,-0.2625 -2.415,-1.19 -0.1225,-0.2975 -0.14,-0.595 -0.175,-0.91 l -1.155,0 c -0.0525,1.295 0.6825,2.38 1.9075,2.835 0.7,0.2625 1.435,0.2625 1.6625,0.2625 2.73,0 3.5,-1.6275 3.5175,-2.835 0,-1.435 -1.12,-1.8725 -1.575,-2.03 -0.21,-0.07 -0.4025,-0.1225 -0.6125,-0.175 l -1.7675,-0.42 c -0.8225,-0.1925 -1.2425,-0.35 -1.505,-0.7 -0.1925,-0.28 -0.21,-0.595 -0.21,-0.7175 0,-0.7875 0.5775,-1.4875 2.0825,-1.4875 1.26,0 1.82,0.455 2.1,0.9975 0.14,0.2975 0.21,0.7175 0.21,0.7875 l 1.12,0 c -0.0175,-0.1925 -0.035,-0.7175 -0.2975,-1.2425 -0.3675,-0.7525 -1.2425,-1.5575 -3.08,-1.5575 -2.0475,0 -2.9225,0.945 -3.185,1.855 -0.07,0.2625 -0.0875,0.4725 -0.0875,0.7525 0,0.77 0.315,1.2775 0.5425,1.505 0.4375,0.455 1.19,0.6475 1.785,0.7875 l 1.61,0.3675 z"
         style=""
         id="path4436" />
      <path
         d="m 198.21756,143.90758 0,-4.5325 c 0.105,0.1575 0.245,0.3325 0.3675,0.4725 0.3325,0.385 1.1725,1.1375 2.555,1.155 0.385,0 1.2775,-0.07 2.1525,-0.6825 1.8025,-1.26 1.8025,-3.535 1.8025,-4.1125 0,-2.6075 -1.3125,-3.8325 -2.2925,-4.305 -0.28,-0.1225 -0.805,-0.3325 -1.5925,-0.3325 -0.42,0 -1.785,0.0525 -2.6775,1.1725 -0.1225,0.1575 -0.1925,0.28 -0.2975,0.4375 l 0,-1.3825 -1.1025,0 0,12.11 1.085,0 z m 5.7225,-7.525 c 0,0.28 0,2.3275 -1.3825,3.2375 -0.42,0.2625 -0.9275,0.4025 -1.435,0.4025 -0.91,0 -1.7675,-0.4375 -2.275,-1.1725 -0.63,-0.9275 -0.6125,-2.065 -0.6125,-2.38 0,-1.225 0.175,-2.59 1.225,-3.43 0.6475,-0.5075 1.2775,-0.5425 1.5925,-0.5425 1.54,0 2.4675,1.085 2.765,2.5025 0.1225,0.5775 0.1225,1.2075 0.1225,1.3825 z"
         style=""
         id="path4438" />
      <path
         d="m 209.19881,135.70008 c -0.8225,0.1575 -1.6975,0.28 -2.3275,0.91 -0.49,0.49 -0.6825,1.19 -0.6825,1.855 0,1.015 0.5075,2.52 2.8875,2.52 1.6625,0 2.555,-0.6475 3.01,-1.225 0.105,-0.1225 0.175,-0.245 0.3325,-0.525 -0.0175,0.175 -0.0525,0.35 -0.0525,0.525 0,0.8225 0.5425,1.1375 1.295,1.155 0.4025,0 0.63,-0.105 0.7875,-0.1575 l 0.0175,-0.8575 c -0.245,0.105 -0.35,0.1225 -0.49,0.1225 -0.2625,0 -0.4025,-0.1225 -0.455,-0.2275 -0.1225,-0.2275 -0.0875,-0.63 -0.07,-0.8575 l 0,-4.41 c 0,-0.7 -0.0175,-1.015 -0.1575,-1.365 -0.2975,-0.8225 -1.2075,-1.5925 -3.115,-1.5925 -2.1,0 -3.01,0.875 -3.3775,1.785 -0.0875,0.245 -0.21,0.6125 -0.21,1.1725 l 1.1725,0 c 0,-0.245 0.0175,-0.4025 0.07,-0.6475 0.105,-0.3675 0.2975,-0.6125 0.4025,-0.7 0.49,-0.5425 1.155,-0.63 1.855,-0.63 1.26,0 1.925,0.4025 2.1525,1.015 0.0875,0.245 0.07,0.35 0.105,0.8225 l 0,0.175 c 0,0.315 -0.0175,0.49 -0.175,0.595 -0.105,0.07 -0.5425,0.1575 -0.9625,0.2275 l -2.0125,0.315 z m 3.185,0.4025 0,0.77 c -0.0175,0.525 -0.0175,0.8925 -0.21,1.3825 -0.4375,1.2075 -1.68,1.82 -2.905,1.82 -0.21,0 -0.875,0 -1.4,-0.4725 -0.4725,-0.42 -0.5075,-0.98 -0.5075,-1.2075 0,-0.4375 0.1225,-0.7 0.21,-0.8575 0.4025,-0.6825 1.155,-0.805 1.8725,-0.945 l 2.94,-0.49 z"
         style=""
         id="path4440" />
      <path
         d="m 223.04979,140.75758 0,-5.46 c 0,-1.225 0.035,-2.52 -1.1725,-3.2725 -0.56,-0.3325 -1.2075,-0.4375 -1.8375,-0.4375 -1.4525,0 -2.1875,0.63 -2.555,1.1375 -0.1225,0.1925 -0.1925,0.3325 -0.28,0.5425 l 0,-1.47 -1.0675,0 0,8.96 1.1375,0 0,-4.8825 c -0.0175,-0.8225 -0.0525,-1.47 0.4375,-2.1875 0.2625,-0.4025 0.945,-1.12 2.205,-1.1375 0.2625,0 1.365,0.0175 1.785,1.015 0.175,0.4025 0.21,0.7525 0.21,1.61 l 0,5.5825 1.1375,0 z"
         style=""
         id="path4442" />
      <path
         d="m 226.74174,140.75758 0,-8.96 -1.1375,0 0,8.96 1.1375,0 z m -0.0175,-10.9025 0,-1.505 -1.1025,0 0,1.505 1.1025,0 z"
         style=""
         id="path4444" />
      <path
         d="m 236.31396,134.58008 c -0.0525,-0.49 -0.1225,-0.7 -0.2275,-0.9275 -0.525,-1.3825 -1.785,-1.855 -2.2575,-1.9775 -0.455,-0.105 -0.91,-0.105 -1.0675,-0.105 -0.1575,0 -0.7175,0 -1.225,0.14 -0.84,0.2625 -1.3825,0.77 -1.5925,0.9975 -1.26,1.3125 -1.3125,3.1325 -1.3125,3.675 0,0.4725 0.0175,2.17 1.12,3.395 0.735,0.8225 1.7325,1.2075 2.8525,1.2075 1.5225,0 2.835,-0.7875 3.4475,-2.2225 0.1925,-0.4725 0.28,-0.9275 0.2975,-1.12 l -1.1025,-0.0175 c 0,0.1225 -0.0525,0.5075 -0.21,0.8575 -0.4025,0.98 -1.3125,1.5225 -2.345,1.5225 -1.3125,0 -2.03,-0.84 -2.275,-1.2075 -0.4725,-0.7175 -0.63,-1.6975 -0.63,-2.52 0,-0.42 0,-2.59 1.715,-3.4475 0.5075,-0.2625 1.015,-0.28 1.2075,-0.28 0.315,-0.0175 1.505,0.0525 2.135,0.9975 0.14,0.21 0.2625,0.49 0.3675,1.0325 l 1.1025,0 z"
         style=""
         id="path4446" />
      <path
         d="m 237.83646,140.75758 4.7775,-12.5825 -1.0675,0 -4.795,12.5825 1.085,0 z"
         style=""
         id="path4448" />
      <path
         d="m 251.73064,140.75758 0,-1.0325 -5.95,0 0,-11.3225 -1.2075,0 0,12.355 7.1575,0 z"
         style=""
         id="path4450" />
      <path
         d="m 254.45271,135.70008 c -0.8225,0.1575 -1.6975,0.28 -2.3275,0.91 -0.49,0.49 -0.6825,1.19 -0.6825,1.855 0,1.015 0.5075,2.52 2.8875,2.52 1.6625,0 2.555,-0.6475 3.01,-1.225 0.105,-0.1225 0.175,-0.245 0.3325,-0.525 -0.0175,0.175 -0.0525,0.35 -0.0525,0.525 0,0.8225 0.5425,1.1375 1.295,1.155 0.4025,0 0.63,-0.105 0.7875,-0.1575 l 0.0175,-0.8575 c -0.245,0.105 -0.35,0.1225 -0.49,0.1225 -0.2625,0 -0.4025,-0.1225 -0.455,-0.2275 -0.1225,-0.2275 -0.0875,-0.63 -0.07,-0.8575 l 0,-4.41 c 0,-0.7 -0.0175,-1.015 -0.1575,-1.365 -0.2975,-0.8225 -1.2075,-1.5925 -3.115,-1.5925 -2.1,0 -3.01,0.875 -3.3775,1.785 -0.0875,0.245 -0.21,0.6125 -0.21,1.1725 l 1.1725,0 c 0,-0.245 0.0175,-0.4025 0.07,-0.6475 0.105,-0.3675 0.2975,-0.6125 0.4025,-0.7 0.49,-0.5425 1.155,-0.63 1.855,-0.63 1.26,0 1.925,0.4025 2.1525,1.015 0.0875,0.245 0.07,0.35 0.105,0.8225 l 0,0.175 c 0,0.315 -0.0175,0.49 -0.175,0.595 -0.105,0.07 -0.5425,0.1575 -0.9625,0.2275 l -2.0125,0.315 z m 3.185,0.4025 0,0.77 c -0.0175,0.525 -0.0175,0.8925 -0.21,1.3825 -0.4375,1.2075 -1.68,1.82 -2.905,1.82 -0.21,0 -0.875,0 -1.4,-0.4725 -0.4725,-0.42 -0.5075,-0.98 -0.5075,-1.2075 0,-0.4375 0.1225,-0.7 0.21,-0.8575 0.4025,-0.6825 1.155,-0.805 1.8725,-0.945 l 2.94,-0.49 z"
         style=""
         id="path4452" />
      <path
         d="m 261.33869,138.99008 c -0.0175,0.945 0.035,1.33 0.49,1.645 0.28,0.1925 0.5775,0.245 0.91,0.245 0.315,0 0.7875,-0.07 0.84,-0.0875 0.0875,-0.0175 0.175,-0.0525 0.28,-0.07 l 0,-1.015 c -0.07,0.0175 -0.49,0.1225 -0.8225,0.1225 -0.63,0 -0.5775,-0.525 -0.5775,-1.3825 l 0.0875,-5.7925 1.4,0 0,-0.8575 -1.4,0 0,-2.625 -1.155,0 0,2.625 -1.2775,0 0,0.8575 1.2775,0 -0.0525,6.335 z"
         style=""
         id="path4454" />
      <path
         d="m 266.49271,140.75758 0,-8.96 -1.1375,0 0,8.96 1.1375,0 z m -0.0175,-10.9025 0,-1.505 -1.1025,0 0,1.505 1.1025,0 z"
         style=""
         id="path4456" />
      <path
         d="m 275.95994,140.75758 0,-5.46 c 0,-1.225 0.035,-2.52 -1.1725,-3.2725 -0.56,-0.3325 -1.2075,-0.4375 -1.8375,-0.4375 -1.4525,0 -2.1875,0.63 -2.555,1.1375 -0.1225,0.1925 -0.1925,0.3325 -0.28,0.5425 l 0,-1.47 -1.0675,0 0,8.96 1.1375,0 0,-4.8825 c -0.0175,-0.8225 -0.0525,-1.47 0.4375,-2.1875 0.2625,-0.4025 0.945,-1.12 2.205,-1.1375 0.2625,0 1.365,0.0175 1.785,1.015 0.175,0.4025 0.21,0.7525 0.21,1.61 l 0,5.5825 1.1375,0 z"
         style=""
         id="path4458" />
      <path
         d="m 286.10939,136.06758 c -0.0525,-2.38 -1.155,-3.5525 -2.0825,-4.0425 -0.84,-0.455 -1.6975,-0.455 -2.0125,-0.455 -0.56,0 -0.9275,0.07 -1.155,0.14 -0.805,0.21 -1.3125,0.63 -1.54,0.84 -1.4,1.295 -1.4525,3.2725 -1.4525,3.7975 0,2.5375 1.155,3.7275 2.1525,4.2175 0.8225,0.4025 1.61,0.42 1.925,0.42 0.3675,0 1.2425,-0.035 2.135,-0.5425 2.065,-1.2075 2.0475,-3.7975 2.03,-4.375 z m -1.1375,0.14 c 0,1.8375 -0.595,2.7475 -1.26,3.2725 -0.7,0.56 -1.3825,0.595 -1.7325,0.595 -0.7525,0 -1.295,-0.28 -1.5575,-0.4375 -0.6825,-0.455 -1.4,-1.4175 -1.4,-3.255 0,-1.9075 0.7875,-3.8675 3.0275,-3.8675 0.6475,0 1.2425,0.1575 1.75,0.56 0.6475,0.5075 1.1725,1.4 1.1725,3.1325 z"
         style=""
         id="path4460" />
    </g>
    <g
       transform="translate(-35.472842,-2.7957153)"
       style="font-style:normal;font-variant:normal;font-weight:500;font-stretch:normal;font-size:17.5px;line-height:125%;font-family:'Helvetica BQ';-inkscape-font-specification:'Helvetica BQ Medium';text-align:center;letter-spacing:0px;word-spacing:0px;text-anchor:middle;fill:#000000;fill-opacity:1;stroke:none;stroke-width:1px;stroke-linecap:butt;stroke-linejoin:miter;stroke-opacity:1"
       id="flowRoot4205">
      <path
         d="m 202.10701,193.00172 0,-12.355 -1.47,0 -4.235,11.025 -4.2175,-11.025 -1.54,0 0,12.355 1.155,0 -0.07,-8.505 c -0.0175,-0.4025 -0.0175,-0.8225 -0.035,-1.225 0,-0.3675 0,-0.735 -0.0175,-1.1025 0.105,0.245 0.1925,0.525 0.28,0.77 0.07,0.175 0.1225,0.3325 0.1925,0.49 l 3.64,9.5725 1.155,0 3.6225,-9.38 c 0.175,-0.4725 0.3675,-0.945 0.525,-1.4175 -0.035,0.6825 -0.0525,1.3475 -0.07,2.0125 0,0.42 -0.0175,0.84 -0.035,1.2425 -0.0175,0.8575 -0.0175,1.6975 -0.035,2.5375 l 0,5.005 1.155,0 z"
         style=""
         id="path4409" />
      <path
         d="m 211.50396,193.00172 0,-8.96 -1.1375,0 0,4.8825 c 0,0.7875 0,1.12 -0.1225,1.505 -0.14,0.5075 -0.4375,0.8225 -0.5775,0.98 -0.2975,0.2975 -0.8575,0.805 -1.925,0.805 -0.2275,0 -1.365,0 -1.8025,-0.9625 -0.175,-0.4025 -0.1925,-0.805 -0.1925,-1.645 l 0,-5.565 -1.1725,0 0,5.46 c 0.0175,1.12 0.035,1.575 0.2625,2.135 0.6125,1.54 2.3975,1.575 2.7825,1.575 1.4525,0 2.2225,-0.7 2.555,-1.2075 0.105,-0.1575 0.14,-0.21 0.245,-0.5075 l 0,1.505 1.085,0 z"
         style=""
         id="path4411" />
      <path
         d="m 215.21342,193.00172 0,-12.355 -1.1375,0 0,12.355 1.1375,0 z"
         style=""
         id="path4413" />
      <path
         d="m 217.71564,191.23422 c -0.0175,0.945 0.035,1.33 0.49,1.645 0.28,0.1925 0.5775,0.245 0.91,0.245 0.315,0 0.7875,-0.07 0.84,-0.0875 0.0875,-0.0175 0.175,-0.0525 0.28,-0.07 l 0,-1.015 c -0.07,0.0175 -0.49,0.1225 -0.8225,0.1225 -0.63,0 -0.5775,-0.525 -0.5775,-1.3825 l 0.0875,-5.7925 1.4,0 0,-0.8575 -1.4,0 0,-2.625 -1.155,0 0,2.625 -1.2775,0 0,0.8575 1.2775,0 -0.0525,6.335 z"
         style=""
         id="path4415" />
      <path
         d="m 222.86967,193.00172 0,-8.96 -1.1375,0 0,8.96 1.1375,0 z m -0.0175,-10.9025 0,-1.505 -1.1025,0 0,1.505 1.1025,0 z"
         style=""
         id="path4417" />
      <path
         d="m 226.50939,193.00172 0,-4.0075 c 0,-1.225 0.0175,-2.5725 1.0675,-3.43 0.56,-0.4375 1.12,-0.5425 1.8025,-0.5425 l 0,-1.085 c -0.175,-0.0175 -0.315,-0.035 -0.385,-0.035 -1.155,0 -1.7675,0.5775 -2.065,0.945 -0.3675,0.455 -0.455,0.8225 -0.5075,1.05 l 0.035,-1.855 -1.0325,0 0,8.96 1.085,0 z"
         style=""
         id="path4419" />
      <path
         d="m 233.08064,187.94422 c -0.8225,0.1575 -1.6975,0.28 -2.3275,0.91 -0.49,0.49 -0.6825,1.19 -0.6825,1.855 0,1.015 0.5075,2.52 2.8875,2.52 1.6625,0 2.555,-0.6475 3.01,-1.225 0.105,-0.1225 0.175,-0.245 0.3325,-0.525 -0.0175,0.175 -0.0525,0.35 -0.0525,0.525 0,0.8225 0.5425,1.1375 1.295,1.155 0.4025,0 0.63,-0.105 0.7875,-0.1575 l 0.0175,-0.8575 c -0.245,0.105 -0.35,0.1225 -0.49,0.1225 -0.2625,0 -0.4025,-0.1225 -0.455,-0.2275 -0.1225,-0.2275 -0.0875,-0.63 -0.07,-0.8575 l 0,-4.41 c 0,-0.7 -0.0175,-1.015 -0.1575,-1.365 -0.2975,-0.8225 -1.2075,-1.5925 -3.115,-1.5925 -2.1,0 -3.01,0.875 -3.3775,1.785 -0.0875,0.245 -0.21,0.6125 -0.21,1.1725 l 1.1725,0 c 0,-0.245 0.0175,-0.4025 0.07,-0.6475 0.105,-0.3675 0.2975,-0.6125 0.4025,-0.7 0.49,-0.5425 1.155,-0.63 1.855,-0.63 1.26,0 1.925,0.4025 2.1525,1.015 0.0875,0.245 0.07,0.35 0.105,0.8225 l 0,0.175 c 0,0.315 -0.0175,0.49 -0.175,0.595 -0.105,0.07 -0.5425,0.1575 -0.9625,0.2275 l -2.0125,0.315 z m 3.185,0.4025 0,0.77 c -0.0175,0.525 -0.0175,0.8925 -0.21,1.3825 -0.4375,1.2075 -1.68,1.82 -2.905,1.82 -0.21,0 -0.875,0 -1.4,-0.4725 -0.4725,-0.42 -0.5075,-0.98 -0.5075,-1.2075 0,-0.4375 0.1225,-0.7 0.21,-0.8575 0.4025,-0.6825 1.155,-0.805 1.8725,-0.945 l 2.94,-0.49 z"
         style=""
         id="path4421" />
      <path
         d="m 247.03662,186.82422 c -0.0525,-0.49 -0.1225,-0.7 -0.2275,-0.9275 -0.525,-1.3825 -1.785,-1.855 -2.2575,-1.9775 -0.455,-0.105 -0.91,-0.105 -1.0675,-0.105 -0.1575,0 -0.7175,0 -1.225,0.14 -0.84,0.2625 -1.3825,0.77 -1.5925,0.9975 -1.26,1.3125 -1.3125,3.1325 -1.3125,3.675 0,0.4725 0.0175,2.17 1.12,3.395 0.735,0.8225 1.7325,1.2075 2.8525,1.2075 1.5225,0 2.835,-0.7875 3.4475,-2.2225 0.1925,-0.4725 0.28,-0.9275 0.2975,-1.12 l -1.1025,-0.0175 c 0,0.1225 -0.0525,0.5075 -0.21,0.8575 -0.4025,0.98 -1.3125,1.5225 -2.345,1.5225 -1.3125,0 -2.03,-0.84 -2.275,-1.2075 -0.4725,-0.7175 -0.63,-1.6975 -0.63,-2.52 0,-0.42 0,-2.59 1.715,-3.4475 0.5075,-0.2625 1.015,-0.28 1.2075,-0.28 0.315,-0.0175 1.505,0.0525 2.135,0.9975 0.14,0.21 0.2625,0.49 0.3675,1.0325 l 1.1025,0 z"
         style=""
         id="path4423" />
      <path
         d="m 249.87162,193.00172 0,-8.96 -1.1375,0 0,8.96 1.1375,0 z m -0.0175,-10.9025 0,-1.505 -1.1025,0 0,1.505 1.1025,0 z"
         style=""
         id="path4425" />
      <path
         d="m 254.61385,187.94422 c -0.8225,0.1575 -1.6975,0.28 -2.3275,0.91 -0.49,0.49 -0.6825,1.19 -0.6825,1.855 0,1.015 0.5075,2.52 2.8875,2.52 1.6625,0 2.555,-0.6475 3.01,-1.225 0.105,-0.1225 0.175,-0.245 0.3325,-0.525 -0.0175,0.175 -0.0525,0.35 -0.0525,0.525 0,0.8225 0.5425,1.1375 1.295,1.155 0.4025,0 0.63,-0.105 0.7875,-0.1575 l 0.0175,-0.8575 c -0.245,0.105 -0.35,0.1225 -0.49,0.1225 -0.2625,0 -0.4025,-0.1225 -0.455,-0.2275 -0.1225,-0.2275 -0.0875,-0.63 -0.07,-0.8575 l 0,-4.41 c 0,-0.7 -0.0175,-1.015 -0.1575,-1.365 -0.2975,-0.8225 -1.2075,-1.5925 -3.115,-1.5925 -2.1,0 -3.01,0.875 -3.3775,1.785 -0.0875,0.245 -0.21,0.6125 -0.21,1.1725 l 1.1725,0 c 0,-0.245 0.0175,-0.4025 0.07,-0.6475 0.105,-0.3675 0.2975,-0.6125 0.4025,-0.7 0.49,-0.5425 1.155,-0.63 1.855,-0.63 1.26,0 1.925,0.4025 2.1525,1.015 0.0875,0.245 0.07,0.35 0.105,0.8225 l 0,0.175 c 0,0.315 -0.0175,0.49 -0.175,0.595 -0.105,0.07 -0.5425,0.1575 -0.9625,0.2275 l -2.0125,0.315 z m 3.185,0.4025 0,0.77 c -0.0175,0.525 -0.0175,0.8925 -0.21,1.3825 -0.4375,1.2075 -1.68,1.82 -2.905,1.82 -0.21,0 -0.875,0 -1.4,-0.4725 -0.4725,-0.42 -0.5075,-0.98 -0.5075,-1.2075 0,-0.4375 0.1225,-0.7 0.21,-0.8575 0.4025,-0.6825 1.155,-0.805 1.8725,-0.945 l 2.94,-0.49 z"
         style=""
         id="path4427" />
      <path
         d="m 262.65482,193.00172 0,-12.355 -1.1375,0 0,12.355 1.1375,0 z"
         style=""
         id="path4429" />
    </g>
    <g
       transform="translate(-23.622637,0.58831791)"
       style="font-style:normal;font-variant:normal;font-weight:500;font-stretch:normal;font-size:17.5px;line-height:125%;font-family:'Helvetica BQ';-inkscape-font-specification:'Helvetica BQ Medium';text-align:center;letter-spacing:0px;word-spacing:0px;text-anchor:middle;fill:#000000;fill-opacity:1;stroke:none;stroke-width:1px;stroke-linecap:butt;stroke-linejoin:miter;stroke-opacity:1"
       id="flowRoot4213">
      <path
         d="m 186.33844,240.19118 0,-12.355 -1.1375,0 0,7.91 c 0.0175,0.4025 0.0175,0.7875 0.0175,1.19 0.0175,0.595 0,1.2075 0.0875,1.8025 -0.245,-0.3675 -0.4725,-0.735 -0.7,-1.1025 -0.3325,-0.49 -0.665,-0.98 -0.98,-1.47 l -5.565,-8.33 -1.3125,0 0,12.355 1.1375,0 0,-6.055 c -0.0175,-0.91 -0.0175,-1.8375 -0.035,-2.7475 -0.0175,-0.7175 -0.035,-1.435 -0.0875,-2.1525 0.2975,0.455 0.595,0.8925 0.8925,1.3475 0.2625,0.4025 0.525,0.8225 0.7875,1.225 0.455,0.7 0.9275,1.3825 1.4,2.0825 l 4.2,6.3 1.295,0 z"
         style=""
         id="path4376" />
      <path
         d="m 196.40969,235.50118 c -0.0525,-2.38 -1.155,-3.5525 -2.0825,-4.0425 -0.84,-0.455 -1.6975,-0.455 -2.0125,-0.455 -0.56,0 -0.9275,0.07 -1.155,0.14 -0.805,0.21 -1.3125,0.63 -1.54,0.84 -1.4,1.295 -1.4525,3.2725 -1.4525,3.7975 0,2.5375 1.155,3.7275 2.1525,4.2175 0.8225,0.4025 1.61,0.42 1.925,0.42 0.3675,0 1.2425,-0.035 2.135,-0.5425 2.065,-1.2075 2.0475,-3.7975 2.03,-4.375 z m -1.1375,0.14 c 0,1.8375 -0.595,2.7475 -1.26,3.2725 -0.7,0.56 -1.3825,0.595 -1.7325,0.595 -0.7525,0 -1.295,-0.28 -1.5575,-0.4375 -0.6825,-0.455 -1.4,-1.4175 -1.4,-3.255 0,-1.9075 0.7875,-3.8675 3.0275,-3.8675 0.6475,0 1.2425,0.1575 1.75,0.56 0.6475,0.5075 1.1725,1.4 1.1725,3.1325 z"
         style=""
         id="path4378" />
      <path
         d="m 205.26414,240.19118 0,-5.46 c 0,-1.225 0.035,-2.52 -1.1725,-3.2725 -0.56,-0.3325 -1.2075,-0.4375 -1.8375,-0.4375 -1.4525,0 -2.1875,0.63 -2.555,1.1375 -0.1225,0.1925 -0.1925,0.3325 -0.28,0.5425 l 0,-1.47 -1.0675,0 0,8.96 1.1375,0 0,-4.8825 c -0.0175,-0.8225 -0.0525,-1.47 0.4375,-2.1875 0.2625,-0.4025 0.945,-1.12 2.205,-1.1375 0.2625,0 1.365,0.0175 1.785,1.015 0.175,0.4025 0.21,0.7525 0.21,1.61 l 0,5.5825 1.1375,0 z"
         style=""
         id="path4380" />
      <path
         d="m 208.93859,240.19118 0,-4.0075 c 0,-1.225 0.0175,-2.5725 1.0675,-3.43 0.56,-0.4375 1.12,-0.5425 1.8025,-0.5425 l 0,-1.085 c -0.175,-0.0175 -0.315,-0.035 -0.385,-0.035 -1.155,0 -1.7675,0.5775 -2.065,0.945 -0.3675,0.455 -0.455,0.8225 -0.5075,1.05 l 0.035,-1.855 -1.0325,0 0,8.96 1.085,0 z"
         style=""
         id="path4382" />
      <path
         d="m 220.46234,235.88618 c 0,-1.19 -0.1225,-2.45 -0.84,-3.465 -0.945,-1.3475 -2.3975,-1.4175 -2.94,-1.4175 -1.2425,0 -2.0125,0.49 -2.38,0.77 -1.6625,1.295 -1.645,3.4475 -1.645,4.025 0,1.6275 0.455,2.59 0.8925,3.15 0.28,0.385 0.6475,0.665 0.77,0.7525 0.7,0.5075 1.4175,0.7175 2.275,0.7175 1.995,0 3.01,-1.2425 3.395,-1.8725 0.2975,-0.49 0.4375,-0.945 0.5075,-1.155 l -1.155,0 c -0.175,0.525 -0.28,0.7175 -0.455,0.9625 -0.7,0.9625 -1.8375,1.0675 -2.205,1.0675 -0.2975,0 -0.9625,-0.035 -1.61,-0.49 -0.875,-0.6125 -1.19,-1.505 -1.2775,-2.5025 -0.0175,-0.175 -0.035,-0.3675 -0.035,-0.5425 l 6.7025,0 z m -6.685,-0.8925 c 0.1575,-1.085 0.5425,-1.7325 0.8575,-2.0825 0.2625,-0.2975 0.91,-0.9275 2.0125,-0.9275 1.1375,0 2.03,0.6475 2.45,1.6975 0.21,0.56 0.2275,1.1025 0.245,1.3125 l -5.565,0 z"
         style=""
         id="path4384" />
      <path
         d="m 225.82582,236.28868 c 0.735,0.1925 1.715,0.4375 1.715,1.4175 0,0.4025 -0.1925,0.735 -0.2625,0.84 -0.42,0.6825 -1.19,0.8575 -1.925,0.8575 -0.91,0 -2.0125,-0.2625 -2.415,-1.19 -0.1225,-0.2975 -0.14,-0.595 -0.175,-0.91 l -1.155,0 c -0.0525,1.295 0.6825,2.38 1.9075,2.835 0.7,0.2625 1.435,0.2625 1.6625,0.2625 2.73,0 3.5,-1.6275 3.5175,-2.835 0,-1.435 -1.12,-1.8725 -1.575,-2.03 -0.21,-0.07 -0.4025,-0.1225 -0.6125,-0.175 l -1.7675,-0.42 c -0.8225,-0.1925 -1.2425,-0.35 -1.505,-0.7 -0.1925,-0.28 -0.21,-0.595 -0.21,-0.7175 0,-0.7875 0.5775,-1.4875 2.0825,-1.4875 1.26,0 1.82,0.455 2.1,0.9975 0.14,0.2975 0.21,0.7175 0.21,0.7875 l 1.12,0 c -0.0175,-0.1925 -0.035,-0.7175 -0.2975,-1.2425 -0.3675,-0.7525 -1.2425,-1.5575 -3.08,-1.5575 -2.0475,0 -2.9225,0.945 -3.185,1.855 -0.07,0.2625 -0.0875,0.4725 -0.0875,0.7525 0,0.77 0.315,1.2775 0.5425,1.505 0.4375,0.455 1.19,0.6475 1.785,0.7875 l 1.61,0.3675 z"
         style=""
         id="path4386" />
      <path
         d="m 231.58305,240.19118 0,-8.96 -1.1375,0 0,8.96 1.1375,0 z m -0.0175,-10.9025 0,-1.505 -1.1025,0 0,1.505 1.1025,0 z"
         style=""
         id="path4388" />
      <path
         d="m 241.41777,240.19118 0,-12.355 -1.085,0 0,4.8125 c -0.175,-0.2975 -0.1925,-0.315 -0.315,-0.4725 -0.35,-0.4025 -1.19,-1.1725 -2.6075,-1.1725 -1.82,0 -3.1675,1.19 -3.6925,2.87 -0.245,0.805 -0.245,1.505 -0.245,1.82 0,0.5075 0,2.345 1.2425,3.64 0.98,1.015 2.1525,1.085 2.6425,1.085 1.435,0 2.24,-0.7175 2.59,-1.12 0.21,-0.245 0.28,-0.35 0.3675,-0.49 l 0,1.3825 1.1025,0 z m -1.085,-4.795 c 0.0175,0.5775 -0.035,1.0325 -0.07,1.2425 -0.0175,0.175 -0.105,0.77 -0.3675,1.3125 -0.21,0.4375 -0.91,1.5225 -2.3975,1.54 -0.5775,0 -1.1375,-0.1925 -1.61,-0.5425 -0.6475,-0.49 -1.2775,-1.47 -1.2775,-3.29 0,-2.765 1.5225,-3.6925 2.8175,-3.6925 1.2775,0 2.275,0.77 2.6775,1.96 0.0875,0.28 0.21,0.7525 0.2275,1.47 z"
         style=""
         id="path4390" />
      <path
         d="m 251.12152,235.88618 c 0,-1.19 -0.1225,-2.45 -0.84,-3.465 -0.945,-1.3475 -2.3975,-1.4175 -2.94,-1.4175 -1.2425,0 -2.0125,0.49 -2.38,0.77 -1.6625,1.295 -1.645,3.4475 -1.645,4.025 0,1.6275 0.455,2.59 0.8925,3.15 0.28,0.385 0.6475,0.665 0.77,0.7525 0.7,0.5075 1.4175,0.7175 2.275,0.7175 1.995,0 3.01,-1.2425 3.395,-1.8725 0.2975,-0.49 0.4375,-0.945 0.5075,-1.155 l -1.155,0 c -0.175,0.525 -0.28,0.7175 -0.455,0.9625 -0.7,0.9625 -1.8375,1.0675 -2.205,1.0675 -0.2975,0 -0.9625,-0.035 -1.61,-0.49 -0.875,-0.6125 -1.19,-1.505 -1.2775,-2.5025 -0.0175,-0.175 -0.035,-0.3675 -0.035,-0.5425 l 6.7025,0 z m -6.685,-0.8925 c 0.1575,-1.085 0.5425,-1.7325 0.8575,-2.0825 0.2625,-0.2975 0.91,-0.9275 2.0125,-0.9275 1.1375,0 2.03,0.6475 2.45,1.6975 0.21,0.56 0.2275,1.1025 0.245,1.3125 l -5.565,0 z"
         style=""
         id="path4392" />
      <path
         d="m 260.02,240.19118 0,-5.46 c 0,-1.225 0.035,-2.52 -1.1725,-3.2725 -0.56,-0.3325 -1.2075,-0.4375 -1.8375,-0.4375 -1.4525,0 -2.1875,0.63 -2.555,1.1375 -0.1225,0.1925 -0.1925,0.3325 -0.28,0.5425 l 0,-1.47 -1.0675,0 0,8.96 1.1375,0 0,-4.8825 c -0.0175,-0.8225 -0.0525,-1.47 0.4375,-2.1875 0.2625,-0.4025 0.945,-1.12 2.205,-1.1375 0.2625,0 1.365,0.0175 1.785,1.015 0.175,0.4025 0.21,0.7525 0.21,1.61 l 0,5.5825 1.1375,0 z"
         style=""
         id="path4394" />
      <path
         d="m 262.55695,238.42368 c -0.0175,0.945 0.035,1.33 0.49,1.645 0.28,0.1925 0.5775,0.245 0.91,0.245 0.315,0 0.7875,-0.07 0.84,-0.0875 0.0875,-0.0175 0.175,-0.0525 0.28,-0.07 l 0,-1.015 c -0.07,0.0175 -0.49,0.1225 -0.8225,0.1225 -0.63,0 -0.5775,-0.525 -0.5775,-1.3825 l 0.0875,-5.7925 1.4,0 0,-0.8575 -1.4,0 0,-2.625 -1.155,0 0,2.625 -1.2775,0 0,0.8575 1.2775,0 -0.0525,6.335 z"
         style=""
         id="path4396" />
      <path
         d="m 281.37793,240.19118 -4.8125,-12.355 -1.26,0 -4.865,12.355 1.26,0 1.4875,-3.9025 5.46,0 1.47,3.9025 1.26,0 z m -3.0975,-4.9 -4.725,0 2.345,-6.2125 2.38,6.2125 z"
         style=""
         id="path4398" />
      <path
         d="m 283.77543,240.19118 0,-12.355 -1.1375,0 0,12.355 1.1375,0 z"
         style=""
         id="path4400" />
      <path
         d="m 287.43266,240.19118 0,-8.96 -1.1375,0 0,8.96 1.1375,0 z m -0.0175,-10.9025 0,-1.505 -1.1025,0 0,1.505 1.1025,0 z"
         style=""
         id="path4402" />
      <path
         d="m 297.12738,235.88618 c 0,-1.19 -0.1225,-2.45 -0.84,-3.465 -0.945,-1.3475 -2.3975,-1.4175 -2.94,-1.4175 -1.2425,0 -2.0125,0.49 -2.38,0.77 -1.6625,1.295 -1.645,3.4475 -1.645,4.025 0,1.6275 0.455,2.59 0.8925,3.15 0.28,0.385 0.6475,0.665 0.77,0.7525 0.7,0.5075 1.4175,0.7175 2.275,0.7175 1.995,0 3.01,-1.2425 3.395,-1.8725 0.2975,-0.49 0.4375,-0.945 0.5075,-1.155 l -1.155,0 c -0.175,0.525 -0.28,0.7175 -0.455,0.9625 -0.7,0.9625 -1.8375,1.0675 -2.205,1.0675 -0.2975,0 -0.9625,-0.035 -1.61,-0.49 -0.875,-0.6125 -1.19,-1.505 -1.2775,-2.5025 -0.0175,-0.175 -0.035,-0.3675 -0.035,-0.5425 l 6.7025,0 z m -6.685,-0.8925 c 0.1575,-1.085 0.5425,-1.7325 0.8575,-2.0825 0.2625,-0.2975 0.91,-0.9275 2.0125,-0.9275 1.1375,0 2.03,0.6475 2.45,1.6975 0.21,0.56 0.2275,1.1025 0.245,1.3125 l -5.565,0 z"
         style=""
         id="path4404" />
      <path
         d="m 306.02586,240.19118 0,-5.46 c 0,-1.225 0.035,-2.52 -1.1725,-3.2725 -0.56,-0.3325 -1.2075,-0.4375 -1.8375,-0.4375 -1.4525,0 -2.1875,0.63 -2.555,1.1375 -0.1225,0.1925 -0.1925,0.3325 -0.28,0.5425 l 0,-1.47 -1.0675,0 0,8.96 1.1375,0 0,-4.8825 c -0.0175,-0.8225 -0.0525,-1.47 0.4375,-2.1875 0.2625,-0.4025 0.945,-1.12 2.205,-1.1375 0.2625,0 1.365,0.0175 1.785,1.015 0.175,0.4025 0.21,0.7525 0.21,1.61 l 0,5.5825 1.1375,0 z"
         style=""
         id="path4406" />
    </g>
    <g
       transform="translate(-63.207725,2.3699341)"
       style="font-style:normal;font-variant:normal;font-weight:500;font-stretch:normal;font-size:17.5px;line-height:125%;font-family:'Helvetica BQ';-inkscape-font-specification:'Helvetica BQ Medium';text-align:center;letter-spacing:0px;word-spacing:0px;text-anchor:middle;fill:#000000;fill-opacity:1;stroke:none;stroke-width:1px;stroke-linecap:butt;stroke-linejoin:miter;stroke-opacity:1"
       id="flowRoot4221">
      <path
         d="m 231.00307,282.60672 c -0.035,-2.345 -0.77,-3.5525 -1.47,-4.3575 -1.47,-1.7325 -3.3775,-1.8025 -4.1825,-1.8025 -2.555,0 -3.9025,1.26 -4.5325,2.1 -0.945,1.2775 -1.2775,2.8875 -1.2775,4.4625 0,0.805 0.07,1.2775 0.14,1.6275 0.1575,0.77 0.7525,3.22 3.185,4.2525 0.9625,0.4025 1.8725,0.4375 2.24,0.4375 2.0125,0 3.78,-0.8575 4.865,-2.59 0.4725,-0.7525 1.0675,-2.03 1.0325,-4.13 z m -1.2075,0.105 c 0.0175,2.1875 -0.6825,3.395 -1.3125,4.1125 -0.2975,0.3325 -0.7,0.665 -1.1025,0.8925 -0.9275,0.5075 -1.8725,0.56 -2.24,0.56 -1.05,0 -2.0475,-0.315 -2.8175,-1.0325 -0.77,-0.735 -1.575,-2.0125 -1.575,-4.3925 0,-3.0275 1.435,-4.3925 2.6425,-4.9525 0.84,-0.385 1.575,-0.42 1.925,-0.42 0.6475,0 2.24,0.1225 3.395,1.5925 1.0675,1.3825 1.085,3.0975 1.085,3.64 z"
         style=""
         id="path4365" />
      <path
         d="m 232.88459,287.29672 c -0.0175,0.945 0.035,1.33 0.49,1.645 0.28,0.1925 0.5775,0.245 0.91,0.245 0.315,0 0.7875,-0.07 0.84,-0.0875 0.0875,-0.0175 0.175,-0.0525 0.28,-0.07 l 0,-1.015 c -0.07,0.0175 -0.49,0.1225 -0.8225,0.1225 -0.63,0 -0.5775,-0.525 -0.5775,-1.3825 l 0.0875,-5.7925 1.4,0 0,-0.8575 -1.4,0 0,-2.625 -1.155,0 0,2.625 -1.2775,0 0,0.8575 1.2775,0 -0.0525,6.335 z"
         style=""
         id="path4367" />
      <path
         d="m 243.84861,289.06422 0,-5.8275 c -0.0175,-1.2075 -0.105,-2.345 -1.3475,-2.975 -0.5075,-0.2625 -1.085,-0.3675 -1.645,-0.3675 -1.4,0 -2.1525,0.595 -2.5375,1.05 -0.105,0.1225 -0.14,0.175 -0.28,0.42 l 0,-4.655 -1.12,0 0,12.355 1.12,0 0,-5.0925 c 0.0175,-0.5075 0.0175,-0.9625 0.1925,-1.435 0.2275,-0.6475 0.8225,-1.2075 1.4525,-1.47 0.1925,-0.07 0.5075,-0.1575 0.98,-0.175 1.2775,0 1.7675,0.7175 1.925,1.2425 0.1225,0.4025 0.1225,0.9625 0.14,1.89 l 0,5.04 1.12,0 z"
         style=""
         id="path4369" />
      <path
         d="m 253.57807,284.75922 c 0,-1.19 -0.1225,-2.45 -0.84,-3.465 -0.945,-1.3475 -2.3975,-1.4175 -2.94,-1.4175 -1.2425,0 -2.0125,0.49 -2.38,0.77 -1.6625,1.295 -1.645,3.4475 -1.645,4.025 0,1.6275 0.455,2.59 0.8925,3.15 0.28,0.385 0.6475,0.665 0.77,0.7525 0.7,0.5075 1.4175,0.7175 2.275,0.7175 1.995,0 3.01,-1.2425 3.395,-1.8725 0.2975,-0.49 0.4375,-0.945 0.5075,-1.155 l -1.155,0 c -0.175,0.525 -0.28,0.7175 -0.455,0.9625 -0.7,0.9625 -1.8375,1.0675 -2.205,1.0675 -0.2975,0 -0.9625,-0.035 -1.61,-0.49 -0.875,-0.6125 -1.19,-1.505 -1.2775,-2.5025 -0.0175,-0.175 -0.035,-0.3675 -0.035,-0.5425 l 6.7025,0 z m -6.685,-0.8925 c 0.1575,-1.085 0.5425,-1.7325 0.8575,-2.0825 0.2625,-0.2975 0.91,-0.9275 2.0125,-0.9275 1.1375,0 2.03,0.6475 2.45,1.6975 0.21,0.56 0.2275,1.1025 0.245,1.3125 l -5.565,0 z"
         style=""
         id="path4371" />
      <path
         d="m 256.64904,289.06422 0,-4.0075 c 0,-1.225 0.0175,-2.5725 1.0675,-3.43 0.56,-0.4375 1.12,-0.5425 1.8025,-0.5425 l 0,-1.085 c -0.175,-0.0175 -0.315,-0.035 -0.385,-0.035 -1.155,0 -1.7675,0.5775 -2.065,0.945 -0.3675,0.455 -0.455,0.8225 -0.5075,1.05 l 0.035,-1.855 -1.0325,0 0,8.96 1.085,0 z"
         style=""
         id="path4373" />
    </g>
    <g
       transform="translate(-51.413428,-4.8968506)"
       style="font-style:normal;font-variant:normal;font-weight:500;font-stretch:normal;font-size:17.5px;line-height:125%;font-family:'Helvetica BQ';-inkscape-font-specification:'Helvetica BQ Medium';text-align:center;letter-spacing:0px;word-spacing:0px;text-anchor:middle;fill:#000000;fill-opacity:1;stroke:none;stroke-width:1px;stroke-linecap:butt;stroke-linejoin:miter;stroke-opacity:1"
       id="flowRoot4229">
      <path
         d="m 213.94705,333.16821 -1.225,0 0,7.4725 c -0.0175,1.015 0.035,2.0825 -0.63,2.94 -0.63,0.805 -1.75,1.155 -2.7125,1.155 -0.98,0 -1.6975,-0.35 -2.0125,-0.5425 -1.3475,-0.8575 -1.3125,-2.2575 -1.3125,-3.6575 l 0,-7.3675 -1.225,0 0,7.875 c 0.0175,0.8225 0.035,1.6975 0.35,2.4675 0.42,1.0325 1.645,2.24 4.1825,2.24 2.3625,0 3.5175,-1.1025 4.025,-1.9775 0.5425,-0.945 0.5425,-1.96 0.56,-3.01 l 0,-7.595 z"
         style=""
         id="path4336" />
      <path
         d="m 223.63303,345.52321 -3.78,-5.6175 3.6575,-3.3425 -1.4525,0 -4.0775,3.71 c -0.175,0.1575 -0.3325,0.3325 -0.5075,0.5075 l 0,-7.6125 -1.155,0 0,12.355 1.1375,0 0,-3.5175 1.5575,-1.4525 3.2725,4.97 1.3475,0 z"
         style=""
         id="path4338" />
      <path
         d="m 231.62205,345.52321 0,-5.46 c 0,-1.225 0.035,-2.52 -1.1725,-3.2725 -0.56,-0.3325 -1.2075,-0.4375 -1.8375,-0.4375 -1.4525,0 -2.1875,0.63 -2.555,1.1375 -0.1225,0.1925 -0.1925,0.3325 -0.28,0.5425 l 0,-1.47 -1.0675,0 0,8.96 1.1375,0 0,-4.8825 c -0.0175,-0.8225 -0.0525,-1.47 0.4375,-2.1875 0.2625,-0.4025 0.945,-1.12 2.205,-1.1375 0.2625,0 1.365,0.0175 1.785,1.015 0.175,0.4025 0.21,0.7525 0.21,1.61 l 0,5.5825 1.1375,0 z"
         style=""
         id="path4340" />
      <path
         d="m 241.7715,340.83321 c -0.0525,-2.38 -1.155,-3.5525 -2.0825,-4.0425 -0.84,-0.455 -1.6975,-0.455 -2.0125,-0.455 -0.56,0 -0.9275,0.07 -1.155,0.14 -0.805,0.21 -1.3125,0.63 -1.54,0.84 -1.4,1.295 -1.4525,3.2725 -1.4525,3.7975 0,2.5375 1.155,3.7275 2.1525,4.2175 0.8225,0.4025 1.61,0.42 1.925,0.42 0.3675,0 1.2425,-0.035 2.135,-0.5425 2.065,-1.2075 2.0475,-3.7975 2.03,-4.375 z m -1.1375,0.14 c 0,1.8375 -0.595,2.7475 -1.26,3.2725 -0.7,0.56 -1.3825,0.595 -1.7325,0.595 -0.7525,0 -1.295,-0.28 -1.5575,-0.4375 -0.6825,-0.455 -1.4,-1.4175 -1.4,-3.255 0,-1.9075 0.7875,-3.8675 3.0275,-3.8675 0.6475,0 1.2425,0.1575 1.75,0.56 0.6475,0.5075 1.1725,1.4 1.1725,3.1325 z"
         style=""
         id="path4342" />
      <path
         d="m 251.48346,345.52321 2.9575,-8.96 -1.19,0 -1.9075,6.2125 c -0.28,0.91 -0.3325,1.2775 -0.3675,1.785 -0.0875,-0.945 -0.1925,-1.3475 -0.2975,-1.8025 l -1.6975,-6.195 -1.085,0 -1.785,6.1425 c -0.2625,1.0325 -0.315,1.2075 -0.3325,1.82 -0.035,-0.42 -0.0525,-0.7875 -0.2975,-1.6275 l -1.855,-6.335 -1.2075,0 2.765,8.96 1.085,0 1.68,-5.74 c 0.14,-0.49 0.2975,-1.12 0.385,-1.6275 0.0175,-0.1575 0.035,-0.315 0.035,-0.4725 0.0525,0.35 0.105,0.7 0.175,1.0325 0.0875,0.385 0.1925,0.7525 0.28,1.12 l 1.54,5.6875 1.12,0 z"
         style=""
         id="path4344" />
      <path
         d="m 262.65721,345.52321 0,-5.46 c 0,-1.225 0.035,-2.52 -1.1725,-3.2725 -0.56,-0.3325 -1.2075,-0.4375 -1.8375,-0.4375 -1.4525,0 -2.1875,0.63 -2.555,1.1375 -0.1225,0.1925 -0.1925,0.3325 -0.28,0.5425 l 0,-1.47 -1.0675,0 0,8.96 1.1375,0 0,-4.8825 c -0.0175,-0.8225 -0.0525,-1.47 0.4375,-2.1875 0.2625,-0.4025 0.945,-1.12 2.205,-1.1375 0.2625,0 1.365,0.0175 1.785,1.015 0.175,0.4025 0.21,0.7525 0.21,1.61 l 0,5.5825 1.1375,0 z"
         style=""
         id="path4346" />
      <path
         d="m 265.03666,345.52321 4.7775,-12.5825 -1.0675,0 -4.795,12.5825 1.085,0 z"
         style=""
         id="path4348" />
      <path
         d="m 283.21834,345.52321 0,-12.355 -1.47,0 -4.235,11.025 -4.2175,-11.025 -1.54,0 0,12.355 1.155,0 -0.07,-8.505 c -0.0175,-0.4025 -0.0175,-0.8225 -0.035,-1.225 0,-0.3675 0,-0.735 -0.0175,-1.1025 0.105,0.245 0.1925,0.525 0.28,0.77 0.07,0.175 0.1225,0.3325 0.1925,0.49 l 3.64,9.5725 1.155,0 3.6225,-9.38 c 0.175,-0.4725 0.3675,-0.945 0.525,-1.4175 -0.035,0.6825 -0.0525,1.3475 -0.07,2.0125 0,0.42 -0.0175,0.84 -0.035,1.2425 -0.0175,0.8575 -0.0175,1.6975 -0.035,2.5375 l 0,5.005 1.155,0 z"
         style=""
         id="path4350" />
      <path
         d="m 286.82279,345.52321 0,-8.96 -1.1375,0 0,8.96 1.1375,0 z m -0.0175,-10.9025 0,-1.505 -1.1025,0 0,1.505 1.1025,0 z"
         style=""
         id="path4352" />
      <path
         d="m 292.75502,341.62071 c 0.735,0.1925 1.715,0.4375 1.715,1.4175 0,0.4025 -0.1925,0.735 -0.2625,0.84 -0.42,0.6825 -1.19,0.8575 -1.925,0.8575 -0.91,0 -2.0125,-0.2625 -2.415,-1.19 -0.1225,-0.2975 -0.14,-0.595 -0.175,-0.91 l -1.155,0 c -0.0525,1.295 0.6825,2.38 1.9075,2.835 0.7,0.2625 1.435,0.2625 1.6625,0.2625 2.73,0 3.5,-1.6275 3.5175,-2.835 0,-1.435 -1.12,-1.8725 -1.575,-2.03 -0.21,-0.07 -0.4025,-0.1225 -0.6125,-0.175 l -1.7675,-0.42 c -0.8225,-0.1925 -1.2425,-0.35 -1.505,-0.7 -0.1925,-0.28 -0.21,-0.595 -0.21,-0.7175 0,-0.7875 0.5775,-1.4875 2.0825,-1.4875 1.26,0 1.82,0.455 2.1,0.9975 0.14,0.2975 0.21,0.7175 0.21,0.7875 l 1.12,0 c -0.0175,-0.1925 -0.035,-0.7175 -0.2975,-1.2425 -0.3675,-0.7525 -1.2425,-1.5575 -3.08,-1.5575 -2.0475,0 -2.9225,0.945 -3.185,1.855 -0.07,0.2625 -0.0875,0.4725 -0.0875,0.7525 0,0.77 0.315,1.2775 0.5425,1.505 0.4375,0.455 1.19,0.6475 1.785,0.7875 l 1.61,0.3675 z"
         style=""
         id="path4354" />
      <path
         d="m 300.78725,341.62071 c 0.735,0.1925 1.715,0.4375 1.715,1.4175 0,0.4025 -0.1925,0.735 -0.2625,0.84 -0.42,0.6825 -1.19,0.8575 -1.925,0.8575 -0.91,0 -2.0125,-0.2625 -2.415,-1.19 -0.1225,-0.2975 -0.14,-0.595 -0.175,-0.91 l -1.155,0 c -0.0525,1.295 0.6825,2.38 1.9075,2.835 0.7,0.2625 1.435,0.2625 1.6625,0.2625 2.73,0 3.5,-1.6275 3.5175,-2.835 0,-1.435 -1.12,-1.8725 -1.575,-2.03 -0.21,-0.07 -0.4025,-0.1225 -0.6125,-0.175 l -1.7675,-0.42 c -0.8225,-0.1925 -1.2425,-0.35 -1.505,-0.7 -0.1925,-0.28 -0.21,-0.595 -0.21,-0.7175 0,-0.7875 0.5775,-1.4875 2.0825,-1.4875 1.26,0 1.82,0.455 2.1,0.9975 0.14,0.2975 0.21,0.7175 0.21,0.7875 l 1.12,0 c -0.0175,-0.1925 -0.035,-0.7175 -0.2975,-1.2425 -0.3675,-0.7525 -1.2425,-1.5575 -3.08,-1.5575 -2.0475,0 -2.9225,0.945 -3.185,1.855 -0.07,0.2625 -0.0875,0.4725 -0.0875,0.7525 0,0.77 0.315,1.2775 0.5425,1.505 0.4375,0.455 1.19,0.6475 1.785,0.7875 l 1.61,0.3675 z"
         style=""
         id="path4356" />
      <path
         d="m 306.54447,345.52321 0,-8.96 -1.1375,0 0,8.96 1.1375,0 z m -0.0175,-10.9025 0,-1.505 -1.1025,0 0,1.505 1.1025,0 z"
         style=""
         id="path4358" />
      <path
         d="m 316.0117,345.52321 0,-5.46 c 0,-1.225 0.035,-2.52 -1.1725,-3.2725 -0.56,-0.3325 -1.2075,-0.4375 -1.8375,-0.4375 -1.4525,0 -2.1875,0.63 -2.555,1.1375 -0.1225,0.1925 -0.1925,0.3325 -0.28,0.5425 l 0,-1.47 -1.0675,0 0,8.96 1.1375,0 0,-4.8825 c -0.0175,-0.8225 -0.0525,-1.47 0.4375,-2.1875 0.2625,-0.4025 0.945,-1.12 2.205,-1.1375 0.2625,0 1.365,0.0175 1.785,1.015 0.175,0.4025 0.21,0.7525 0.21,1.61 l 0,5.5825 1.1375,0 z"
         style=""
         id="path4360" />
      <path
         d="m 324.86615,344.57821 c -0.0175,0.805 -0.07,1.6975 -0.63,2.345 -0.7175,0.8225 -2.0125,0.8225 -2.2575,0.8225 -0.6475,0 -1.4525,-0.105 -1.96,-0.595 -0.35,-0.3325 -0.3675,-0.63 -0.4025,-0.8225 l -1.1725,0 c 0.0525,0.4375 0.14,0.63 0.2275,0.8225 0.385,0.77 1.33,1.575 3.22,1.575 1.7325,0 2.7125,-0.6475 3.185,-1.2075 0.7525,-0.8925 0.805,-1.995 0.8225,-3.0975 l 0,-7.8575 -0.9975,0 0,1.4525 c -0.1225,-0.2625 -0.21,-0.42 -0.4025,-0.6475 -0.875,-0.9975 -2.1525,-1.0325 -2.555,-1.0325 -0.735,-0.0175 -1.225,0.1575 -1.505,0.2625 -0.4725,0.1925 -0.945,0.5425 -1.295,0.9275 -0.8225,0.9275 -1.2075,2.17 -1.2075,3.395 0,2.31 1.3475,4.5325 3.92,4.5325 1.3125,0 2.17,-0.6475 2.52,-0.98 0.14,-0.14 0.28,-0.28 0.49,-0.63 l 0,0.735 z m 0,-3.675 c 0,0.2625 0.0525,1.5225 -0.5775,2.415 -0.5075,0.735 -1.4175,1.155 -2.2925,1.1725 -0.2975,0 -0.945,-0.0525 -1.5925,-0.5075 -1.3125,-0.9275 -1.295,-2.6775 -1.295,-3.08 0,-1.8725 0.8225,-2.8175 1.505,-3.2375 0.6125,-0.3675 1.1725,-0.385 1.435,-0.385 1.4,0 2.38,0.9625 2.695,2.275 0.105,0.455 0.1225,0.8925 0.1225,1.3475 z"
         style=""
         id="path4362" />
    </g>
    <g
       transform="translate(-83.689131,4)"
       style="font-style:normal;font-variant:normal;font-weight:500;font-stretch:normal;font-size:17.5px;line-height:125%;font-family:'Helvetica BQ';-inkscape-font-specification:'Helvetica BQ Medium';text-align:center;letter-spacing:0px;word-spacing:0px;text-anchor:middle;fill:#000000;fill-opacity:1;stroke:none;stroke-width:1px;stroke-linecap:butt;stroke-linejoin:miter;stroke-opacity:1"
       id="flowRoot4237">
      <path
         d="m 251.77197,388.49977 3.1325,-12.355 -1.1725,0 -2.66,11.165 c -0.105,-0.525 -0.245,-1.0675 -0.385,-1.575 l -2.5375,-9.59 -1.4,0 -2.5725,9.6775 c -0.0525,0.245 -0.14,0.5075 -0.1925,0.77 -0.0525,0.21 -0.105,0.4375 -0.1575,0.665 l -2.6075,-11.1125 -1.2425,0 3.15,12.355 1.3475,0 2.94,-11.165 2.975,11.165 1.3825,0 z"
         style=""
         id="path4325" />
      <path
         d="m 262.72752,388.49977 0,-5.8275 c -0.0175,-1.2075 -0.105,-2.345 -1.3475,-2.975 -0.5075,-0.2625 -1.085,-0.3675 -1.645,-0.3675 -1.4,0 -2.1525,0.595 -2.5375,1.05 -0.105,0.1225 -0.14,0.175 -0.28,0.42 l 0,-4.655 -1.12,0 0,12.355 1.12,0 0,-5.0925 c 0.0175,-0.5075 0.0175,-0.9625 0.1925,-1.435 0.2275,-0.6475 0.8225,-1.2075 1.4525,-1.47 0.1925,-0.07 0.5075,-0.1575 0.98,-0.175 1.2775,0 1.7675,0.7175 1.925,1.2425 0.1225,0.4025 0.1225,0.9625 0.14,1.89 l 0,5.04 1.12,0 z"
         style=""
         id="path4327" />
      <path
         d="m 266.41947,388.49977 0,-8.96 -1.1375,0 0,8.96 1.1375,0 z m -0.0175,-10.9025 0,-1.505 -1.1025,0 0,1.505 1.1025,0 z"
         style=""
         id="path4329" />
      <path
         d="m 268.9217,386.73227 c -0.0175,0.945 0.035,1.33 0.49,1.645 0.28,0.1925 0.5775,0.245 0.91,0.245 0.315,0 0.7875,-0.07 0.84,-0.0875 0.0875,-0.0175 0.175,-0.0525 0.28,-0.07 l 0,-1.015 c -0.07,0.0175 -0.49,0.1225 -0.8225,0.1225 -0.63,0 -0.5775,-0.525 -0.5775,-1.3825 l 0.0875,-5.7925 1.4,0 0,-0.8575 -1.4,0 0,-2.625 -1.155,0 0,2.625 -1.2775,0 0,0.8575 1.2775,0 -0.0525,6.335 z"
         style=""
         id="path4331" />
      <path
         d="m 280.11322,384.19477 c 0,-1.19 -0.1225,-2.45 -0.84,-3.465 -0.945,-1.3475 -2.3975,-1.4175 -2.94,-1.4175 -1.2425,0 -2.0125,0.49 -2.38,0.77 -1.6625,1.295 -1.645,3.4475 -1.645,4.025 0,1.6275 0.455,2.59 0.8925,3.15 0.28,0.385 0.6475,0.665 0.77,0.7525 0.7,0.5075 1.4175,0.7175 2.275,0.7175 1.995,0 3.01,-1.2425 3.395,-1.8725 0.2975,-0.49 0.4375,-0.945 0.5075,-1.155 l -1.155,0 c -0.175,0.525 -0.28,0.7175 -0.455,0.9625 -0.7,0.9625 -1.8375,1.0675 -2.205,1.0675 -0.2975,0 -0.9625,-0.035 -1.61,-0.49 -0.875,-0.6125 -1.19,-1.505 -1.2775,-2.5025 -0.0175,-0.175 -0.035,-0.3675 -0.035,-0.5425 l 6.7025,0 z m -6.685,-0.8925 c 0.1575,-1.085 0.5425,-1.7325 0.8575,-2.0825 0.2625,-0.2975 0.91,-0.9275 2.0125,-0.9275 1.1375,0 2.03,0.6475 2.45,1.6975 0.21,0.56 0.2275,1.1025 0.245,1.3125 l -5.565,0 z"
         style=""
         id="path4333" />
    </g>
    <rect
       style="opacity:1;fill:none;fill-opacity:0.90980392;stroke:none;stroke-width:2.5;stroke-miterlimit:10;stroke-dasharray:none;stroke-dashoffset:0.31812501;stroke-opacity:1"
       id="rect4282"
       width="317.68268"
       height="367.3996"
       x="39.605003"
       y="47.069248" />
  </g>
</svg>
